<svg xmlns="http://www.w3.org/2000/svg" width="1400" height="1000" viewBox="0 0 1400 1000" role="img" aria-labelledby="title description">
  <title id="title">Illustrated practice desk</title>
  <desc id="description">A generic illustrated home office used only for interface practice.</desc>
  <defs>
    <linearGradient id="wall" x1="0" y1="0" x2="0" y2="1">
      <stop offset="0" stop-color="#dbeff7"/>
      <stop offset="1" stop-color="#b9d2dc"/>
    </linearGradient>
    <linearGradient id="window" x1="0" y1="0" x2="1" y2="1">
      <stop offset="0" stop-color="#8fd0ed"/>
      <stop offset="1" stop-color="#dff5ff"/>
    </linearGradient>
    <linearGradient id="desk" x1="0" y1="0" x2="0" y2="1">
      <stop offset="0" stop-color="#b77b4a"/>
      <stop offset="1" stop-color="#714529"/>
    </linearGradient>
    <filter id="shadow" x="-30%" y="-30%" width="160%" height="180%">
      <feDropShadow dx="0" dy="16" stdDeviation="16" flood-color="#20313b" flood-opacity=".28"/>
    </filter>
  </defs>

  <rect width="1400" height="700" fill="url(#wall)"/>
  <path d="M0 700h1400v300H0z" fill="#8b684e"/>
  <path d="M0 760h1400M0 850h1400M250 700v300M590 700v300M930 700v300M1240 700v300" stroke="#75543e" stroke-width="8" opacity=".55"/>

  <g filter="url(#shadow)">
    <rect x="95" y="105" width="390" height="330" rx="12" fill="#f8fafc" stroke="#607d8b" stroke-width="14"/>
    <rect x="118" y="128" width="344" height="284" fill="url(#window)"/>
    <path d="M290 128v284M118 270h344" stroke="#f8fafc" stroke-width="14"/>
    <path d="m120 350 95-90 75 72 68-105 104 102v83H118z" fill="#7eb88a" opacity=".9"/>
    <circle cx="395" cy="185" r="42" fill="#f5ce68"/>
  </g>

  <g transform="translate(1060 160)">
    <rect width="220" height="300" rx="12" fill="#fffaf0" stroke="#7b6c5a" stroke-width="12"/>
    <circle cx="110" cy="104" r="58" fill="#e8b84f"/>
    <path d="M70 103h80M110 63v80" stroke="#8f6a2c" stroke-width="13" stroke-linecap="round"/>
    <path d="M42 222c42-56 94-56 136 0" fill="none" stroke="#6e8b75" stroke-width="18" stroke-linecap="round"/>
  </g>

  <g filter="url(#shadow)">
    <path d="M170 600h1060l70 105H100z" fill="url(#desk)"/>
    <rect x="150" y="700" width="42" height="250" rx="8" fill="#553421"/>
    <rect x="1208" y="700" width="42" height="250" rx="8" fill="#553421"/>
  </g>

  <g transform="translate(500 345)" filter="url(#shadow)">
    <rect width="380" height="250" rx="18" fill="#263844" stroke="#15242e" stroke-width="12"/>
    <rect x="24" y="24" width="332" height="190" rx="6" fill="#88b8c7"/>
    <rect x="55" y="55" width="105" height="16" rx="8" fill="#d9eef3"/>
    <rect x="55" y="90" width="230" height="13" rx="6" fill="#5e8998"/>
    <rect x="55" y="120" width="190" height="13" rx="6" fill="#5e8998"/>
    <circle cx="310" cy="62" r="22" fill="#d8a96a"/>
    <path d="m150 250-30 74h140l-30-74z" fill="#263844"/>
    <rect x="82" y="318" width="216" height="24" rx="12" fill="#263844"/>
  </g>

  <g transform="translate(340 540) rotate(-5)" filter="url(#shadow)">
    <rect width="290" height="165" rx="12" fill="#f4ead8" stroke="#baa98d" stroke-width="7"/>
    <path d="m5 8 136 92L285 8" fill="none" stroke="#baa98d" stroke-width="7"/>
    <rect x="28" y="118" width="150" height="15" rx="7" fill="#78909c"/>
    <rect x="28" y="140" width="95" height="10" rx="5" fill="#9aabb3"/>
  </g>

  <g transform="translate(905 465)" filter="url(#shadow)">
    <rect x="0" y="62" width="180" height="130" rx="12" fill="#426f78"/>
    <rect x="18" y="78" width="144" height="88" rx="8" fill="#d7e7e8"/>
    <circle cx="90" cy="122" r="29" fill="#cf7c57"/>
    <path d="m80 116 24 12-24 12z" fill="#fff"/>
    <path d="M38 52c22-56 82-61 105-10" fill="none" stroke="#334155" stroke-width="12" stroke-linecap="round"/>
  </g>

  <g transform="translate(1140 500)">
    <path d="M75 90c-70-24-72-92-20-112 44-17 76 21 78 65 12-69 93-86 124-32 30 54-23 97-81 92 49 20 58 83 10 105-55 26-96-28-84-83-29 58-107 46-112-12-3-47 34-72 85-23z" fill="#4b9660"/>
    <path d="M105 92v95" stroke="#416d49" stroke-width="16"/>
    <path d="M42 170h135l-18 120H60z" fill="#a65f3b" stroke="#71432f" stroke-width="8"/>
  </g>

  <rect x="0" y="0" width="1400" height="1000" fill="none" stroke="#263844" stroke-width="18" opacity=".35"/>
</svg>
